<?xml version='1.0' encoding='utf-8'?>
<!DOCTYPE svg>
<!-- Generator: Adobe Illustrator 16.0.1, SVG Export Plug-In . SVG Version: 6.00 Build 0)  -->
<svg xmlns="http://www.w3.org/2000/svg" enable-background="new 0 0 54 18" version="1.1" id="svg4364" xmlns:xml="http://www.w3.org/XML/1998/namespace"  viewBox="0 0 54 18" gorn="0" x="0px" y="0px" height="0.25in" xml:space="preserve" width="0.75in">
    <desc >
        <referenceFile >pcb.svg</referenceFile>
    </desc>
    <g transform="translate(0,-1034.362)" >
        <g >
            <g id="layer1"  gorn="0.1.0.0"/>
        </g>
    </g>
    <g id="pcb"  gorn="0.2">
        <g id="copper1"  gorn="0.2.0">
            <g id="copper0"  gorn="0.2.0.0">
                <path fill="none" id="connector1pad" stroke-linejoin="round"  stroke="#F6CA34" d="M14.85,9c0,1.242-1.007,2.25-2.25,2.25S10.35,10.242,10.35,9c0-1.243,1.007-2.25,2.25-2.25S14.85,7.757,14.85,9z" stroke-linecap="round" gorn="0.2.0.0.0" stroke-width="1.8"/>
                <path fill="none" id="connector2pad" stroke-linejoin="round"  stroke="#F6CA34" d="M22.05,9c0,1.242-1.007,2.25-2.25,2.25S17.55,10.242,17.55,9c0-1.243,1.007-2.25,2.25-2.25S22.05,7.757,22.05,9z" stroke-linecap="round" gorn="0.2.0.0.1" stroke-width="1.8"/>
                <path fill="none" id="connector3pad" stroke-linejoin="round"  stroke="#F6CA34" d="M29.25,9c0,1.242-1.008,2.25-2.25,2.25c-1.243,0-2.25-1.008-2.25-2.25c0-1.243,1.007-2.25,2.25-2.25C28.242,6.75,29.25,7.757,29.25,9z" stroke-linecap="round" gorn="0.2.0.0.2" stroke-width="1.8"/>
                <path fill="none" id="connector4pad" stroke-linejoin="round"  stroke="#F6CA34" d="M36.45,9c0,1.242-1.008,2.25-2.25,2.25S31.95,10.242,31.95,9c0-1.243,1.008-2.25,2.25-2.25S36.45,7.757,36.45,9z" stroke-linecap="round" gorn="0.2.0.0.3" stroke-width="1.8"/>
                <path fill="none" id="connector5pad" stroke-linejoin="round"  stroke="#F6CA34" d="M43.65,9c0,1.242-1.008,2.25-2.25,2.25S39.15,10.242,39.15,9c0-1.243,1.008-2.25,2.25-2.25S43.65,7.757,43.65,9z" stroke-linecap="round" gorn="0.2.0.0.4" stroke-width="1.8"/>
            </g>
        </g>
        <g id="g5108"  gorn="0.2.1">
            <g transform="matrix(1.5277664,0,0,0.47368379,-0.47498975,-8.0526234)" >
                <g >
                    <g id="silkscreen"  gorn="0.2.1.0.0.0">
                        <rect fill="none" id="rect214639"  stroke="#FFFFFF" gorn="0.2.1.0.0.0.0" x="0.9" y="18.9" height="34.199" stroke-width="0.375" width="34.2"/>
                    </g>
                </g>
            </g>
            <rect fill="#FFFFFF" id="rect4590"  gorn="0.2.1.1" x="9" y="0.9" height="2.7" width="36"/>
        </g>
    </g>
</svg>
