<?xml version='1.0' encoding='utf-8'?>
<!DOCTYPE svg>
<!-- Generator: Adobe Illustrator 16.0.0, SVG Export Plug-In . SVG Version: 6.00 Build 0)  -->
<svg xmlns="http://www.w3.org/2000/svg" enable-background="new 0 0 87.87 99.21" version="1.1" id="Layer_1" xmlns:xml="http://www.w3.org/XML/1998/namespace"  viewBox="0 0 87.87 99.21" gorn="0" x="0px" y="0px" height="1.37792in" xml:space="preserve" width="1.22042in">
    <desc >
        <referenceFile >breadboard.svg</referenceFile>
    </desc>
    <g >
        <g id="breadboard"  gorn="0.1.0">
            <rect fill="#1B84C6"  height="99.21" width="87.87"/>
            <circle fill="none" id="connector0pin_2_"  r="2.088" cx="75.225" cy="20.373" stroke="#FDBF16" gorn="0.1.0.1" stroke-width="1.44"/>
            <circle fill="none" id="connector1pin_2_"  r="2.088" cx="68.023" cy="20.373" stroke="#FDBF16" gorn="0.1.0.2" stroke-width="1.44"/>
            <circle fill="none" id="connector2pin_2_"  r="2.088" cx="60.824" cy="20.373" stroke="#FDBF16" gorn="0.1.0.3" stroke-width="1.44"/>
            <circle fill="none" id="connector3pin_2_"  r="2.088" cx="53.625" cy="20.373" stroke="#FDBF16" gorn="0.1.0.4" stroke-width="1.44"/>
            <circle fill="none" id="connector4pin_2_"  r="2.088" cx="46.424" cy="20.373" stroke="#FDBF16" gorn="0.1.0.5" stroke-width="1.44"/>
            <circle fill="none" id="connector5pin_2_"  r="2.088" cx="39.224" cy="20.373" stroke="#FDBF16" gorn="0.1.0.6" stroke-width="1.44"/>
            <circle fill="none" id="connector6pin_2_"  r="2.088" cx="32.023" cy="20.373" stroke="#FDBF16" gorn="0.1.0.7" stroke-width="1.44"/>
            <circle fill="none" id="connector7pin_1_"  r="2.088" cx="10.422" cy="27.573" stroke="#FDBF16" gorn="0.1.0.8" stroke-width="1.44"/>
            <circle fill="none" id="connector8pin_1_"  r="2.088" cx="10.422" cy="34.773" stroke="#FDBF16" gorn="0.1.0.9" stroke-width="1.44"/>
            <circle fill="none" id="connector9pin_1_"  r="2.088" cx="10.422" cy="41.973" stroke="#FDBF16" gorn="0.1.0.10" stroke-width="1.44"/>
            <circle fill="none" id="connector10pin_1_"  r="2.088" cx="10.422" cy="49.174" stroke="#FDBF16" gorn="0.1.0.11" stroke-width="1.44"/>
            <circle fill="none" id="connector11pin_1_"  r="2.088" cx="79.475" cy="63.574" stroke="#FDBF16" gorn="0.1.0.12" stroke-width="1.44"/>
            <circle fill="none" id="connector12pin_1_"  r="2.088" cx="72.275" cy="63.574" stroke="#FDBF16" gorn="0.1.0.13" stroke-width="1.44"/>
            <circle fill="none" id="connector13pin_1_"  r="2.088" cx="65.076" cy="63.574" stroke="#FDBF16" gorn="0.1.0.14" stroke-width="1.44"/>
            <circle fill="none" id="connector14pin_1_"  r="2.088" cx="57.875" cy="63.574" stroke="#FDBF16" gorn="0.1.0.15" stroke-width="1.44"/>
            <circle fill="none" id="connector15pin_1_"  r="2.088" cx="50.674" cy="63.574" stroke="#FDBF16" gorn="0.1.0.16" stroke-width="1.44"/>
            <g transform="matrix(-1 0 0 -1 75.9863 71.5703)" >
                <g >
                    <g >
                        <text fill="#FFFFFF" font-family="OCRA"  font-size="4">A</text>
                    </g>
                </g>
            </g>
            <g transform="matrix(-1 0 0 -1 62.0938 71.5723)" >
                <g >
                    <g >
                        <text fill="#FFFFFF" font-family="OCRA"  font-size="4">B</text>
                    </g>
                </g>
            </g>
            <g transform="matrix(-1 0 0 -1 46.7969 71.5723)" >
                <g >
                    <g >
                        <text fill="#FFFFFF" font-family="OCRA"  font-size="4">C</text>
                    </g>
                </g>
            </g>
            <g transform="matrix(-1 0 0 -1 30.4473 71.5703)" >
                <g >
                    <g >
                        <text fill="#FFFFFF" font-family="OCRA"  font-size="4">D</text>
                    </g>
                </g>
            </g>
            <g transform="matrix(-1.346898e-10 1 -1 -1.346898e-10 4.2188 39.1006)" >
                <g >
                    <g >
                        <text fill="#FFFFFF" font-family="OCRA"  font-size="3">ON/OFF</text>
                    </g>
                </g>
            </g>
            <g transform="matrix(-1.346898e-10 1 -1 -1.346898e-10 0.6172 39.1006)" >
                <g >
                    <g >
                        <text fill="#FFFFFF" font-family="OCRA"  font-size="3">JUMPER</text>
                    </g>
                </g>
            </g>
            <g transform="matrix(-1.346898e-10 1 -1 -1.346898e-10 4.2188 27.2622)" >
                <g >
                    <g >
                        <text fill="#FFFFFF" font-family="OCRA"  font-size="3">-</text>
                    </g>
                </g>
            </g>
            <g transform="matrix(-1.346898e-10 1 -1 -1.346898e-10 4.2188 32.9312)" >
                <g >
                    <g >
                        <text fill="#FFFFFF" font-family="OCRA"  font-size="3">+</text>
                    </g>
                </g>
            </g>
            <g transform="matrix(-1.346898e-10 1 -1 -1.346898e-10 0.5508 25.7217)" >
                <g >
                    <g >
                        <text fill="#FFFFFF" font-family="OCRA"  font-size="3">5-12V</text>
                    </g>
                </g>
            </g>
            <g transform="matrix(-1.346898e-10 1 -1 -1.346898e-10 74.0547 9.5024)" >
                <g >
                    <g >
                        <text fill="#FFFFFF" font-family="OCRA"  font-size="3">IN1</text>
                    </g>
                </g>
            </g>
            <g transform="matrix(-1.346898e-10 1 -1 -1.346898e-10 66.7305 9.5024)" >
                <g >
                    <g >
                        <text fill="#FFFFFF" font-family="OCRA"  font-size="3">IN2</text>
                    </g>
                </g>
            </g>
            <g transform="matrix(-1.346898e-10 1 -1 -1.346898e-10 59.6445 9.5024)" >
                <g >
                    <g >
                        <text fill="#FFFFFF" font-family="OCRA"  font-size="3">IN3</text>
                    </g>
                </g>
            </g>
            <g transform="matrix(-1.346898e-10 1 -1 -1.346898e-10 52.2734 9.5024)" >
                <g >
                    <g >
                        <text fill="#FFFFFF" font-family="OCRA"  font-size="3">IN4</text>
                    </g>
                </g>
            </g>
            <path fill="#FFFFFF"  d="M11.759,89.189c0.013,0.044,0.026,0.086,0.043,0.128h0.424c0.207,0,0.372-0.165,0.372-0.371c0-0.205-0.166-0.373-0.372-0.373h-0.41C11.729,88.773,11.7,88.983,11.759,89.189"/>
            <path fill="#FFFFFF"  d="M18.823,88.782c-0.128-2.337-2.031-4.259-4.362-4.404c-2.384-0.147-4.39,1.537-4.824,3.77h0.002c-0.035,0.175-0.045,0.351-0.065,0.537c-0.011,0.126-0.014,0.257,0.028,0.378c0.055,0.15,0.181,0.255,0.343,0.255h1.009c-0.032-0.158-0.047-0.315-0.038-0.479c0.006-0.088,0.019-0.179,0.037-0.265h-0.585c0.015-0.478,0.152-0.882,0.431-1.395c0.674-1.231,2.007-2.062,3.521-2.01c1.998,0.063,3.633,1.681,3.728,3.682c0.039,0.796-0.168,1.546-0.554,2.177l0,0c-0.036,0.064-0.078,0.125-0.12,0.186c-0.001,0.004-0.002,0.004-0.002,0.006c-0.037,0.059-0.078,0.111-0.121,0.168c-0.005,0.008-0.009,0.016-0.014,0.02c-0.042,0.059-0.086,0.111-0.133,0.162c-0.025,0.029-0.051,0.062-0.077,0.086c-0.021,0.021-0.037,0.043-0.06,0.062c-0.705,0.73-1.693,1.188-2.783,1.188c-1.55,0-2.883-0.912-3.503-2.229c-0.035-0.08-0.08-0.156-0.141-0.227c-0.087-0.084-0.187-0.141-0.31-0.146c-0.006,0-0.011,0-0.017,0.002c-0.25,0.025-0.407,0.287-0.31,0.521c0.702,1.676,2.352,2.854,4.28,2.854C16.831,93.674,18.964,91.455,18.823,88.782"/>
            <polygon fill="#FFFFFF"  points="15.443,88.756 16.211,88.756 16.211,89.198 15.443,89.198 15.443,90.104 16.482,90.104 16.482,90.545 14.842,90.545 14.842,87.456 16.482,87.456 16.482,87.897 15.443,87.897 "/>
            <path fill="#FFFFFF"  d="M15.406,90.963h-1.157c-0.772,0-1.521,0.141-2.205-0.309c-0.6-0.391-1.053-1.074-1.011-1.811c0.055-0.963,1.103-1.839,2.035-1.866c0.772-0.021,1.559,0.013,2.337,0.013L15.406,90.963L15.406,90.963z M12.836,90.342c0.082,0.021,0.167,0.026,0.255,0.039c0.136,0.013,1.742-0.004,1.742,0.008v-2.826h-1.028c-0.481,0-0.981-0.058-1.412,0.2c-0.474,0.29-0.908,0.876-0.744,1.458C11.818,89.817,12.262,90.211,12.836,90.342"/>
            <g transform="matrix(1 0 0 1 3.3281 96.625)" >
                <g >
                    <g >
                        <text fill="#FFFFFF" font-family="OCRA"  font-size="2">e-radionica.com</text>
                    </g>
                </g>
            </g>
            <path fill="#FFFFFF" id="path4473-4"  d="M45.073,69.855h6.743v-2.247h2.314h3.887h13.787h3.891h2.364v2.247h6.693V55.293H78.45H51.423H45.07v14.562H45.073z M52.111,62.145v-1.462h1.968v1.462H52.111z M59.942,62.145v-1.462h1.968v1.462H59.942z M67.868,62.145v-1.462h2.018v1.462H67.868z M75.746,62.145v-1.462h2.018v1.462H75.746z" gorn="0.1.0.35"/>
            <rect fill="#FFFFFF"  x="50.841" y="59.936" height="3.976" width="28.348"/>
            <line fill="none"  y1="55.293" y2="69.855" stroke="#020202" x1="84.753" x2="84.753" stroke-width="0.1"/>
            <path fill="#DCDBDB" id="path4475-8"  d="M58.019,69.998v-2.429h13.788v2.429H58.019z" gorn="0.1.0.38"/>
            <path fill="none" id="path4477-8"  stroke="#020202" d="M51.375,55.292h-6.302" gorn="0.1.0.39" stroke-width="0.0709"/>
            <path fill="none" id="path4479-2"  stroke="#020202" d="M51.375,55.292v1.57" gorn="0.1.0.40" stroke-width="0.0709"/>
            <path fill="none" id="path4481-4"  stroke="#020202" d="M47.237,56.828l4.141,0.036" gorn="0.1.0.41" stroke-width="0.0709"/>
            <path fill="none" id="path4483-5"  stroke="#020202" d="M47.237,66v-9.172" gorn="0.1.0.42" stroke-width="0.0709"/>
            <path fill="none" id="path4485-5"  stroke="#020202" d="M54.131,66v1.57" gorn="0.1.0.43" stroke-width="0.0709"/>
            <path fill="none" id="path4487-1"  stroke="#020202" d="M51.766,67.572h2.365" gorn="0.1.0.44" stroke-width="0.0709"/>
            <path fill="none" id="path4489-7"  stroke="#020202" d="M78.453,55.292H51.376" gorn="0.1.0.45" stroke-width="0.0709"/>
            <path fill="none" id="path4491-1"  stroke="#020202" d="M54.131,67.572h3.888" gorn="0.1.0.46" stroke-width="0.0709"/>
            <path fill="none" id="path4493-1"  stroke="#020202" d="M45.073,69.855h6.692" gorn="0.1.0.47" stroke-width="0.0709"/>
            <path fill="none" id="path4495-5"  stroke="#020202" d="M51.766,67.572v2.283" gorn="0.1.0.48" stroke-width="0.0709"/>
            <path fill="none" id="path4497-2"  stroke="#020202" d="M58.019,67.572v2.427" gorn="0.1.0.49" stroke-width="0.0709"/>
            <path fill="none" id="path4499-7"  stroke="#020202" d="M82.588,56.864v9.137" gorn="0.1.0.50" stroke-width="0.0709"/>
            <path fill="none" id="path4501-6"  stroke="#020202" d="M78.453,56.864h4.135" gorn="0.1.0.51" stroke-width="0.0709"/>
            <path fill="none" id="path4503-1"  stroke="#020202" d="M78.453,55.292v1.57" gorn="0.1.0.52" stroke-width="0.0709"/>
            <path fill="none" id="path4505-4"  stroke="#020202" d="M78.453,55.292h6.303" gorn="0.1.0.53" stroke-width="0.0709"/>
            <path fill="none" id="path4507-2"  stroke="#020202" d="M78.06,67.572h-2.362" gorn="0.1.0.54" stroke-width="0.0709"/>
            <path fill="none" id="path4509-3"  stroke="#020202" d="M75.699,67.572v-1.571" gorn="0.1.0.55" stroke-width="0.0709"/>
            <path fill="none" id="path4511-2"  stroke="#020202" d="M75.699,67.572h-3.892" gorn="0.1.0.56" stroke-width="0.0709"/>
            <path fill="none" id="path4513-2"  stroke="#020202" d="M84.756,69.855h-6.692" gorn="0.1.0.57" stroke-width="0.0709"/>
            <path fill="none" id="path4515-1"  stroke="#020202" d="M78.06,67.572v2.283" gorn="0.1.0.58" stroke-width="0.0709"/>
            <path fill="none" id="path4517-6"  stroke="#020202" d="M71.808,67.572v2.427" gorn="0.1.0.59" stroke-width="0.0709"/>
            <path fill="none" id="path4519-8"  stroke="#020202" d="M45.073,69.855V55.293" gorn="0.1.0.60" stroke-width="0.0709"/>
            <path fill="none" id="path4521-5"  stroke="#020202" d="M58.019,67.572h13.788" gorn="0.1.0.61" stroke-width="0.0709"/>
            <path fill="none" id="path4525-6"  stroke="#020202" d="M51.375,56.864h27.078" gorn="0.1.0.62" stroke-width="0.0709"/>
            <rect fill="#303030" id="middle"  gorn="0.1.0.63" x="24.718" y="31.092" height="19.439" width="57.601"/>
            <rect fill="#3F3F3F" id="top"  gorn="0.1.0.64" x="24.718" y="31.092" height="1.771" width="57.601"/>
            <rect fill="#020202" id="bottom"  gorn="0.1.0.65" x="24.718" y="48.761" height="1.771" width="57.601"/>
            <polygon fill="#171717" id="right"  points="82.316,31.092 81.777,32.863 81.777,48.761 82.316,50.532 " gorn="0.1.0.66"/>
            <polygon fill="#1F2020" id="left"  points="24.718,31.092 25.258,32.863 25.258,48.761 24.718,50.532 " gorn="0.1.0.67"/>
            <polygon fill="#1C1C1C" id="left-upper-rect"  points="28.317,37.212 25.258,37.184 25.121,38.71 25.121,40.812 28.317,40.812 " gorn="0.1.0.68"/>
            <polygon fill="#393A39" id="left-lower-rect"  points="25.258,44.448 28.317,44.448 28.317,40.812 25.121,40.812 25.121,42.915 " gorn="0.1.0.69"/>
            <path fill="#272626" id="slot"  d="M25.121,38.71v4.197c1.058-0.122,1.886-1.008,1.886-2.104C27.007,39.711,26.187,38.833,25.121,38.71z" gorn="0.1.0.70"/>
            <path fill="#303030" id="cover"  d="M25.258,32.863v4.313c1.713,0.323,3.017,1.821,3.017,3.627c0,1.809-1.296,3.312-3.017,3.638v0.007h3.6V32.863H25.258z" gorn="0.1.0.71"/>
            <circle fill="#212121"  r="1.483" cx="29.397" cy="45.83"/>
            <g transform="matrix(1 0 0 1 29.397 40.8115)" >
                <g >
                    <g >
                        <text fill="#E6E6E5" font-family="OCRA" id="label"  gorn="0.1.0.73.0.0.0" font-size="5.76">ULN2003A</text>
                    </g>
                </g>
            </g>
            <polygon fill="#8C8C8C"  points="27.237,49.567 27.237,51.007 29.397,51.007 30.838,50.345 30.838,49.567 "/>
            <polygon fill="#8C8C8C"  points="30.838,32.058 30.838,31.279 29.397,30.617 27.237,30.617 27.237,32.058 "/>
            <polygon fill="#8C8C8C"  points="76.197,49.567 76.197,50.345 77.639,51.007 79.799,51.007 79.799,49.567 "/>
            <polygon fill="#8C8C8C"  points="79.799,32.058 79.799,30.617 77.639,30.617 76.197,31.279 76.197,32.058 "/>
            <polygon fill="#8C8C8C"  points="32.997,49.567 32.997,50.345 34.438,51.007 36.598,51.007 38.037,50.345 38.037,49.567 "/>
            <polygon fill="#8C8C8C"  points="38.037,32.058 38.037,31.279 36.598,30.617 34.438,30.617 32.997,31.279 32.997,32.058 "/>
            <polygon fill="#8C8C8C"  points="40.197,49.567 40.197,50.345 41.638,51.007 43.798,51.007 45.236,50.345 45.236,49.567 "/>
            <polygon fill="#8C8C8C"  points="45.236,32.058 45.236,31.279 43.798,30.617 41.638,30.617 40.197,31.279 40.197,32.058 "/>
            <polygon fill="#8C8C8C"  points="47.396,49.567 47.396,50.345 48.838,51.007 50.998,51.007 52.438,50.345 52.438,49.567 "/>
            <polygon fill="#8C8C8C"  points="52.438,32.058 52.438,31.279 50.998,30.617 48.838,30.617 47.396,31.279 47.396,32.058 "/>
            <polygon fill="#8C8C8C"  points="54.598,49.567 54.598,50.345 56.037,51.007 58.197,51.007 59.639,50.345 59.639,49.567 "/>
            <polygon fill="#8C8C8C"  points="59.639,32.058 59.639,31.279 58.197,30.617 56.037,30.617 54.598,31.279 54.598,32.058 "/>
            <polygon fill="#8C8C8C"  points="61.799,49.567 61.799,50.345 63.236,51.007 65.396,51.007 66.838,50.345 66.838,49.567 "/>
            <polygon fill="#8C8C8C"  points="66.838,32.058 66.838,31.279 65.396,30.617 63.236,30.617 61.799,31.279 61.799,32.058 "/>
            <polygon fill="#8C8C8C"  points="68.998,49.567 68.998,50.345 70.438,51.007 72.598,51.007 74.037,50.345 74.037,49.567 "/>
            <polygon fill="#8C8C8C"  points="74.037,32.058 74.037,31.279 72.598,30.617 70.438,30.617 68.998,31.279 68.998,32.058 "/>
            <g id="_x3C_Group_x3E__5_"  gorn="0.1.0.90">
                <path fill="#FFFFFF" enable-background="new    " id="path26"  d="M69.607,85.297v-3.84c0-2.541,2.057-4.604,4.6-4.604c2.541,0,4.604,2.06,4.604,4.604v8.861c-0.957,1.07-2.66,1.785-4.604,1.785c-2.998,0-5.434-1.695-5.434-3.805l4.602-0.99c0.002-0.736,0.312-1.43,0.834-2.018L69.607,85.297L69.607,85.297z" gorn="0.1.0.90.0" opacity="0.3"/>
                <path fill="#E6E6E5" enable-background="new    " id="path29"  d="M69.607,85.297v-3.84c0-2.541,2.057-4.604,4.6-4.604c2.541,0,4.604,2.06,4.604,4.604v8.861c-0.957,1.07-2.66,1.785-4.604,1.785c-2.998,0-5.434-1.695-5.434-3.805l4.602-0.99c0.002-0.736,0.312-1.43,0.834-2.018L69.607,85.297L69.607,85.297z" gorn="0.1.0.90.1" opacity="0.5"/>
                <path fill="#D1D2D2" enable-background="new    " id="path32"  d="M69.607,85.297v2.016c0,1.779,2.057,3.227,4.6,3.227c2.541,0,4.604-1.439,4.604-3.227v2.018v0.99c-0.957,1.07-2.66,1.785-4.604,1.785c-2.998,0-5.434-1.697-5.434-3.805v-0.988C68.773,86.572,69.082,85.883,69.607,85.297z" gorn="0.1.0.90.2" opacity="0.9"/>
                <path fill="#828282" enable-background="new    " id="path35"  d="M69.607,85.297v2.016c0,1.779,2.057,3.227,4.6,3.227c2.541,0,4.604-1.439,4.604-3.227v2.018v0.99c-0.957,1.07-2.66,1.785-4.604,1.785c-2.998,0-5.434-1.697-5.434-3.805v-0.988C68.773,86.572,69.082,85.883,69.607,85.297z" gorn="0.1.0.90.3" opacity="0.7"/>
                <path fill="#CECCCC" enable-background="new    " id="path38"  d="M69.607,85.297v2.016c0,1.779,2.057,3.227,4.6,3.227c2.541,0,4.604-1.439,4.604-3.227v2.018c-0.957,1.072-2.66,1.787-4.604,1.787c-2.998,0-5.434-1.699-5.434-3.805C68.773,86.572,69.082,85.883,69.607,85.297z" gorn="0.1.0.90.4" opacity="0.25"/>
                <ellipse fill="#E6E6E5" enable-background="new    " id="ellipse41"  cx="74.207" cy="87.312" gorn="0.1.0.90.5" rx="4.604" ry="3.221" opacity="0.25"/>
                <ellipse fill="#828282" enable-background="new    " id="ellipse44"  cx="74.207" cy="87.312" gorn="0.1.0.90.6" rx="4.604" ry="3.221" opacity="0.25"/>
                <polygon fill="#676868" id="polygon47"  points="76.734,87.312 76.734,85.355 74.904,85.355 72.309,82.57 76.598,82.57 77.379,83.119 77.379,87.312 " gorn="0.1.0.90.7"/>
                <polygon fill="#676868" id="polygon50"  points="73.996,85.355 71.629,85.355 71.629,87.312 71.035,87.312 71.035,82.389 71.811,82.389 71.529,82.722 " gorn="0.1.0.90.8"/>
                <path fill="#E6E6E5" enable-background="new    " id="path53"  d="M69.607,85.297v-3.84c0-2.541,2.057-4.604,4.6-4.604c2.541,0,4.604,2.06,4.604,4.604v8.861c-0.957,1.07-2.66,1.785-4.604,1.785c-2.998,0-5.434-1.695-5.434-3.805l4.602-0.99c0.002-0.736,0.312-1.43,0.834-2.018L69.607,85.297L69.607,85.297z" gorn="0.1.0.90.9" opacity="0.65"/>
                <path fill="#FFFFFF" enable-background="new    " id="path56"  d="M72.064,79.291l-0.934-0.176c0.547-0.736,1.352-1.271,2.301-1.453l-0.166,0.701C72.771,78.539,72.354,78.869,72.064,79.291z" gorn="0.1.0.90.10" opacity="0.5"/>
                <path fill="#FFFFFF" enable-background="new    " id="path59"  d="M78.311,89.793v0.988c-0.42,0.344-0.93,0.633-1.498,0.854v-0.992C77.383,90.428,77.889,90.137,78.311,89.793z" gorn="0.1.0.90.11" opacity="0.5"/>
                <path fill="#FFFFFF" enable-background="new    " id="path63"  d="M71.619,89.977c0.166,0.08,0.346,0.15,0.523,0.215c0.039,0.014,0.076,0.025,0.115,0.037c0.367,0.115,0.754,0.207,1.166,0.258c0.049,0.006,0.098,0.012,0.145,0.012c0.207,0.021,0.418,0.039,0.633,0.039c0.096,0,0.197-0.01,0.307-0.016c0.779-0.037,1.516-0.205,2.143-0.48v-5.445v-3.137c0-0.952-0.551-1.771-1.35-2.174l0.018-0.035l0.812-0.979c1.084,0.647,1.812,1.833,1.812,3.188v7.729c0.033-0.029,0.201-0.197,0.312-0.344l0.199,0.445c-0.91,0.961-2.475,1.602-4.248,1.602c-1.094,0-2.105-0.244-2.932-0.65l0.344-0.268C71.619,89.977,71.619,89.977,71.619,89.977z" gorn="0.1.0.90.12" opacity="0.5"/>
            </g>
            <g id="_x3C_Group_x3E__6_"  gorn="0.1.0.91">
                <path fill="#FFFFFF" enable-background="new    " id="path26_1_"  d="M55.078,85.395v-3.839c0-2.541,2.057-4.604,4.604-4.604c2.541,0,4.604,2.062,4.604,4.604v8.86c-0.957,1.074-2.66,1.789-4.604,1.789c-2.998,0-5.438-1.699-5.438-3.809l4.604-0.986c0.002-0.74,0.309-1.434,0.834-2.02L55.078,85.395L55.078,85.395z" gorn="0.1.0.91.0" opacity="0.3"/>
                <path fill="#E6E6E5" enable-background="new    " id="path29_1_"  d="M55.078,85.395v-3.839c0-2.541,2.057-4.604,4.604-4.604c2.541,0,4.604,2.062,4.604,4.604v8.86c-0.957,1.074-2.66,1.789-4.604,1.789c-2.998,0-5.438-1.699-5.438-3.809l4.604-0.986c0.002-0.74,0.309-1.434,0.834-2.02L55.078,85.395L55.078,85.395z" gorn="0.1.0.91.1" opacity="0.5"/>
                <path fill="#D1D2D2" enable-background="new    " id="path32_1_"  d="M55.078,85.395v2.018c0,1.777,2.057,3.227,4.604,3.227c2.541,0,4.604-1.438,4.604-3.227v2.018v0.988c-0.957,1.072-2.66,1.787-4.604,1.787c-2.998,0-5.438-1.697-5.438-3.805v-0.988C54.244,86.67,54.553,85.98,55.078,85.395z" gorn="0.1.0.91.2" opacity="0.9"/>
                <path fill="#828282" enable-background="new    " id="path35_1_"  d="M55.078,85.395v2.018c0,1.777,2.057,3.227,4.604,3.227c2.541,0,4.604-1.438,4.604-3.227v2.018v0.988c-0.957,1.072-2.66,1.787-4.604,1.787c-2.998,0-5.438-1.697-5.438-3.805v-0.988C54.244,86.67,54.553,85.98,55.078,85.395z" gorn="0.1.0.91.3" opacity="0.7"/>
                <path fill="#CECCCC" enable-background="new    " id="path38_1_"  d="M55.078,85.395v2.018c0,1.777,2.057,3.227,4.604,3.227c2.541,0,4.604-1.438,4.604-3.227v2.018c-0.957,1.07-2.66,1.789-4.604,1.789c-2.998,0-5.438-1.701-5.438-3.807C54.244,86.67,54.553,85.98,55.078,85.395z" gorn="0.1.0.91.4" opacity="0.25"/>
                <ellipse fill="#E6E6E5" enable-background="new    " id="ellipse41_1_"  cx="59.678" cy="87.41" gorn="0.1.0.91.5" rx="4.602" ry="3.221" opacity="0.25"/>
                <ellipse fill="#828282" enable-background="new    " id="ellipse44_1_"  cx="59.678" cy="87.41" gorn="0.1.0.91.6" rx="4.602" ry="3.221" opacity="0.25"/>
                <polygon fill="#676868" id="polygon47_1_"  points="62.205,87.412 62.205,85.455 60.375,85.455 57.779,82.67 62.068,82.67 62.85,83.219 62.85,87.412 " gorn="0.1.0.91.7"/>
                <polygon fill="#676868" id="polygon50_1_"  points="59.467,85.455 57.1,85.455 57.1,87.412 56.506,87.412 56.506,82.488 57.281,82.488 57,82.82 " gorn="0.1.0.91.8"/>
                <path fill="#E6E6E5" enable-background="new    " id="path53_1_"  d="M55.078,85.395v-3.839c0-2.541,2.057-4.604,4.604-4.604c2.541,0,4.604,2.062,4.604,4.604v8.86c-0.957,1.074-2.66,1.789-4.604,1.789c-2.998,0-5.438-1.699-5.438-3.809l4.604-0.986c0.002-0.74,0.309-1.434,0.834-2.02L55.078,85.395L55.078,85.395z" gorn="0.1.0.91.9" opacity="0.65"/>
                <path fill="#FFFFFF" enable-background="new    " id="path56_1_"  d="M57.535,79.39l-0.934-0.177c0.547-0.735,1.352-1.271,2.301-1.453l-0.166,0.701C58.242,78.638,57.824,78.969,57.535,79.39z" gorn="0.1.0.91.10" opacity="0.5"/>
                <path fill="#FFFFFF" enable-background="new    " id="path59_1_"  d="M63.781,89.891v0.988c-0.42,0.344-0.93,0.633-1.498,0.855v-0.992C62.854,90.525,63.359,90.236,63.781,89.891z" gorn="0.1.0.91.11" opacity="0.5"/>
                <path fill="#FFFFFF" enable-background="new    " id="path63_1_"  d="M57.09,90.076c0.166,0.08,0.346,0.148,0.52,0.215c0.039,0.016,0.076,0.023,0.117,0.037c0.365,0.115,0.754,0.207,1.164,0.26c0.049,0.006,0.102,0.012,0.146,0.012c0.207,0.021,0.418,0.039,0.631,0.039c0.098,0,0.199-0.014,0.309-0.018c0.777-0.037,1.516-0.205,2.143-0.479v-5.445v-3.137c0-0.955-0.553-1.771-1.35-2.175l0.018-0.035l0.811-0.979c1.084,0.648,1.812,1.834,1.812,3.188v7.729c0.031-0.029,0.199-0.197,0.312-0.344l0.195,0.445c-0.91,0.961-2.473,1.602-4.248,1.602c-1.092,0-2.104-0.244-2.93-0.65l0.342-0.268C57.09,90.076,57.09,90.076,57.09,90.076z" gorn="0.1.0.91.12" opacity="0.5"/>
            </g>
            <g id="_x3C_Group_x3E__7_"  gorn="0.1.0.92">
                <path fill="#FFFFFF" enable-background="new    " id="path26_2_"  d="M39.784,85.006v-3.84c0-2.541,2.056-4.604,4.599-4.604c2.541,0,4.604,2.06,4.604,4.604v8.861c-0.957,1.07-2.658,1.785-4.604,1.785c-2.998,0-5.433-1.695-5.433-3.805l4.601-0.99c0.002-0.736,0.31-1.43,0.834-2.016L39.784,85.006L39.784,85.006z" gorn="0.1.0.92.0" opacity="0.3"/>
                <path fill="#E6E6E5" enable-background="new    " id="path29_2_"  d="M39.784,85.006v-3.84c0-2.541,2.056-4.604,4.599-4.604c2.541,0,4.604,2.06,4.604,4.604v8.861c-0.957,1.07-2.658,1.785-4.604,1.785c-2.998,0-5.433-1.695-5.433-3.805l4.601-0.99c0.002-0.736,0.31-1.43,0.834-2.016L39.784,85.006L39.784,85.006z" gorn="0.1.0.92.1" opacity="0.5"/>
                <path fill="#D1D2D2" enable-background="new    " id="path32_2_"  d="M39.784,85.006v2.016c0,1.779,2.056,3.227,4.599,3.227c2.541,0,4.604-1.439,4.604-3.227v2.018v0.99c-0.957,1.07-2.658,1.785-4.604,1.785c-2.998,0-5.433-1.697-5.433-3.805v-0.988C38.95,86.281,39.257,85.592,39.784,85.006z" gorn="0.1.0.92.2" opacity="0.9"/>
                <path fill="#828282" enable-background="new    " id="path35_2_"  d="M39.784,85.006v2.016c0,1.779,2.056,3.227,4.599,3.227c2.541,0,4.604-1.439,4.604-3.227v2.018v0.99c-0.957,1.07-2.658,1.785-4.604,1.785c-2.998,0-5.433-1.697-5.433-3.805v-0.988C38.95,86.281,39.257,85.592,39.784,85.006z" gorn="0.1.0.92.3" opacity="0.7"/>
                <path fill="#CECCCC" enable-background="new    " id="path38_2_"  d="M39.784,85.006v2.016c0,1.779,2.056,3.227,4.599,3.227c2.541,0,4.604-1.439,4.604-3.227v2.018c-0.957,1.07-2.66,1.787-4.604,1.787c-2.998,0-5.433-1.701-5.433-3.805C38.95,86.281,39.257,85.592,39.784,85.006z" gorn="0.1.0.92.4" opacity="0.25"/>
                <ellipse fill="#E6E6E5" enable-background="new    " id="ellipse41_2_"  cx="44.383" cy="87.021" gorn="0.1.0.92.5" rx="4.603" ry="3.221" opacity="0.25"/>
                <ellipse fill="#828282" enable-background="new    " id="ellipse44_2_"  cx="44.383" cy="87.021" gorn="0.1.0.92.6" rx="4.603" ry="3.221" opacity="0.25"/>
                <polygon fill="#676868" id="polygon47_2_"  points="46.91,87.021 46.91,85.066 45.08,85.066 42.484,82.279 46.773,82.279 47.556,82.828 47.556,87.021 " gorn="0.1.0.92.7"/>
                <polygon fill="#676868" id="polygon50_2_"  points="44.172,85.066 41.805,85.066 41.805,87.021 41.211,87.021 41.211,82.098 41.986,82.098 41.705,82.431 " gorn="0.1.0.92.8"/>
                <path fill="#E6E6E5" enable-background="new    " id="path53_2_"  d="M39.784,85.006v-3.84c0-2.541,2.056-4.604,4.599-4.604c2.541,0,4.604,2.06,4.604,4.604v8.861c-0.957,1.07-2.658,1.785-4.604,1.785c-2.998,0-5.433-1.695-5.433-3.805l4.601-0.99c0.002-0.736,0.31-1.43,0.834-2.016L39.784,85.006L39.784,85.006z" gorn="0.1.0.92.9" opacity="0.65"/>
                <path fill="#FFFFFF" enable-background="new    " id="path56_2_"  d="M42.24,79l-0.934-0.176c0.547-0.735,1.352-1.271,2.301-1.453l-0.166,0.701C42.947,78.248,42.529,78.578,42.24,79z" gorn="0.1.0.92.10" opacity="0.5"/>
                <path fill="#FFFFFF" enable-background="new    " id="path59_2_"  d="M48.486,89.502v0.988c-0.42,0.344-0.93,0.633-1.498,0.854v-0.992C47.56,90.137,48.064,89.846,48.486,89.502z" gorn="0.1.0.92.11" opacity="0.5"/>
                <path fill="#FFFFFF" enable-background="new    " id="path63_2_"  d="M41.795,89.686c0.166,0.08,0.346,0.15,0.521,0.215c0.039,0.014,0.076,0.025,0.116,0.037c0.363,0.117,0.754,0.207,1.165,0.258c0.049,0.006,0.098,0.012,0.146,0.012c0.207,0.021,0.418,0.039,0.631,0.039c0.098,0,0.198-0.01,0.309-0.016c0.777-0.037,1.514-0.205,2.141-0.48v-5.443v-3.139c0-0.951-0.551-1.771-1.348-2.174l0.018-0.035l0.812-0.979c1.084,0.646,1.811,1.834,1.811,3.188v7.729c0.033-0.029,0.201-0.197,0.312-0.344L48.625,89c-0.91,0.961-2.474,1.6-4.248,1.6c-1.092,0-2.104-0.244-2.931-0.65l0.343-0.268C41.795,89.686,41.795,89.686,41.795,89.686z" gorn="0.1.0.92.12" opacity="0.5"/>
            </g>
            <g id="_x3C_Group_x3E__8_"  gorn="0.1.0.93">
                <path fill="#FFFFFF" enable-background="new    " id="path26_3_"  d="M24.07,84.617v-3.84c0-2.541,2.057-4.604,4.6-4.604c2.541,0,4.604,2.059,4.604,4.604v8.861c-0.957,1.074-2.66,1.789-4.604,1.789c-2.999,0-5.434-1.699-5.434-3.805l4.602-0.99c0.001-0.74,0.309-1.43,0.834-2.016H24.07L24.07,84.617z" gorn="0.1.0.93.0" opacity="0.3"/>
                <path fill="#E6E6E5" enable-background="new    " id="path29_3_"  d="M24.07,84.617v-3.84c0-2.541,2.057-4.604,4.6-4.604c2.541,0,4.604,2.059,4.604,4.604v8.861c-0.957,1.074-2.66,1.789-4.604,1.789c-2.999,0-5.434-1.699-5.434-3.805l4.602-0.99c0.001-0.74,0.309-1.43,0.834-2.016H24.07L24.07,84.617z" gorn="0.1.0.93.1" opacity="0.5"/>
                <path fill="#D1D2D2" enable-background="new    " id="path32_3_"  d="M24.07,84.617v2.02c0,1.775,2.056,3.227,4.6,3.227c2.541,0,4.604-1.439,4.604-3.227v2.018v0.988c-0.957,1.072-2.66,1.787-4.604,1.787c-2.999,0-5.434-1.699-5.434-3.809v-0.984C23.236,85.893,23.543,85.203,24.07,84.617z" gorn="0.1.0.93.2" opacity="0.9"/>
                <path fill="#828282" enable-background="new    " id="path35_3_"  d="M24.07,84.617v2.02c0,1.775,2.056,3.227,4.6,3.227c2.541,0,4.604-1.439,4.604-3.227v2.018v0.988c-0.957,1.072-2.66,1.787-4.604,1.787c-2.999,0-5.434-1.699-5.434-3.809v-0.984C23.236,85.893,23.543,85.203,24.07,84.617z" gorn="0.1.0.93.3" opacity="0.7"/>
                <path fill="#CECCCC" enable-background="new    " id="path38_3_"  d="M24.07,84.617v2.02c0,1.775,2.056,3.227,4.6,3.227c2.541,0,4.604-1.439,4.604-3.227v2.018c-0.957,1.07-2.66,1.787-4.604,1.787c-2.999,0-5.434-1.697-5.434-3.805C23.236,85.893,23.543,85.203,24.07,84.617z" gorn="0.1.0.93.4" opacity="0.25"/>
                <ellipse fill="#E6E6E5" enable-background="new    " id="ellipse41_3_"  cx="28.669" cy="86.633" gorn="0.1.0.93.5" rx="4.602" ry="3.221" opacity="0.25"/>
                <ellipse fill="#828282" enable-background="new    " id="ellipse44_3_"  cx="28.669" cy="86.633" gorn="0.1.0.93.6" rx="4.602" ry="3.221" opacity="0.25"/>
                <polygon fill="#676868" id="polygon47_3_"  points="31.197,86.633 31.197,84.678 29.368,84.678 26.771,81.891 31.061,81.891 31.841,82.439 31.841,86.633 " gorn="0.1.0.93.7"/>
                <polygon fill="#676868" id="polygon50_3_"  points="28.458,84.678 26.09,84.678 26.09,86.633 25.498,86.633 25.498,81.709 26.273,81.709 25.993,82.041 " gorn="0.1.0.93.8"/>
                <path fill="#E6E6E5" enable-background="new    " id="path53_3_"  d="M24.07,84.617v-3.84c0-2.541,2.057-4.604,4.6-4.604c2.541,0,4.604,2.059,4.604,4.604v8.861c-0.957,1.074-2.66,1.789-4.604,1.789c-2.999,0-5.434-1.699-5.434-3.805l4.602-0.99c0.001-0.74,0.309-1.43,0.834-2.016H24.07L24.07,84.617z" gorn="0.1.0.93.9" opacity="0.65"/>
                <path fill="#FFFFFF" enable-background="new    " id="path56_3_"  d="M26.527,78.611l-0.934-0.176c0.547-0.736,1.352-1.271,2.301-1.453l-0.166,0.701C27.234,77.859,26.816,78.189,26.527,78.611z" gorn="0.1.0.93.10" opacity="0.5"/>
                <path fill="#FFFFFF" enable-background="new    " id="path59_3_"  d="M32.773,89.113v0.988c-0.42,0.344-0.93,0.633-1.498,0.855v-0.992C31.846,89.748,32.352,89.457,32.773,89.113z" gorn="0.1.0.93.11" opacity="0.5"/>
                <path fill="#FFFFFF" enable-background="new    " id="path63_3_"  d="M26.083,89.297c0.166,0.08,0.345,0.15,0.523,0.215c0.039,0.016,0.076,0.025,0.116,0.037c0.366,0.117,0.754,0.207,1.165,0.258c0.049,0.006,0.098,0.014,0.146,0.014c0.207,0.021,0.418,0.039,0.631,0.039c0.096,0,0.199-0.012,0.307-0.018c0.779-0.037,1.514-0.205,2.141-0.479v-5.447v-3.135c0-0.955-0.551-1.771-1.348-2.175l0.016-0.034l0.811-0.979c1.084,0.647,1.811,1.834,1.811,3.188v7.729c0.033-0.031,0.201-0.199,0.312-0.346l0.199,0.447c-0.91,0.961-2.473,1.602-4.249,1.602c-1.091,0-2.103-0.244-2.929-0.652l0.341-0.268C26.083,89.297,26.083,89.297,26.083,89.297z" gorn="0.1.0.93.12" opacity="0.5"/>
            </g>
            <polygon fill="#414141"  points="73.081,17.008 71.518,18.571 71.518,22.643 73.081,24.207 77.153,24.207 78.718,22.643 78.718,18.571 77.153,17.008 "/>
            <rect fill="none" id="connector0pin"  gorn="0.1.0.95" x="73.722" y="19.212" height="2.792" width="2.792"/>
            <g id="connector0terminal"  gorn="0.1.0.96"/>
            <rect fill="#8D8C8C"  x="73.969" y="19.459" height="2.298" width="2.299"/>
            <rect fill="#8C8664"  x="74.527" y="20.017" height="1.183" width="1.182"/>
            <polygon fill="#B8AF83"  points="73.969,19.459 74.527,20.017 75.708,20.017 76.268,19.459 "/>
            <polygon fill="#817A5C"  points="75.708,21.198 75.708,20.017 76.268,19.459 76.268,21.757 "/>
            <polygon fill="#5F5C44"  points="74.527,21.198 75.708,21.198 76.268,21.757 73.969,21.757 "/>
            <polygon fill="#9A916C"  points="73.969,19.459 74.527,20.017 74.527,21.198 73.969,21.757 "/>
            <polygon fill="#414141"  points="65.881,17.008 64.318,18.571 64.318,22.643 65.881,24.207 69.954,24.207 71.518,22.643 71.518,18.571 69.954,17.008 "/>
            <rect fill="none" id="connector1pin"  gorn="0.1.0.104" x="66.522" y="19.212" height="2.792" width="2.791"/>
            <g id="connector1terminal"  gorn="0.1.0.105"/>
            <rect fill="#8D8C8C"  x="66.77" y="19.459" height="2.298" width="2.298"/>
            <rect fill="#8C8664"  x="67.327" y="20.017" height="1.183" width="1.183"/>
            <polygon fill="#B8AF83"  points="66.77,19.459 67.327,20.017 68.509,20.017 69.067,19.459 "/>
            <polygon fill="#817A5C"  points="68.509,21.198 68.509,20.017 69.067,19.459 69.067,21.757 "/>
            <polygon fill="#5F5C44"  points="67.327,21.198 68.509,21.198 69.067,21.757 66.77,21.757 "/>
            <polygon fill="#9A916C"  points="66.77,19.459 67.327,20.017 67.327,21.198 66.77,21.757 "/>
            <polygon fill="#414141"  points="58.682,17.008 57.118,18.571 57.118,22.643 58.682,24.207 62.754,24.207 64.318,22.643 64.318,18.571 62.754,17.008 "/>
            <rect fill="none" id="connector2pin"  gorn="0.1.0.113" x="59.322" y="19.212" height="2.792" width="2.791"/>
            <g id="connector2terminal"  gorn="0.1.0.114"/>
            <rect fill="#8D8C8C"  x="59.569" y="19.459" height="2.298" width="2.298"/>
            <rect fill="#8C8664"  x="60.127" y="20.017" height="1.183" width="1.183"/>
            <polygon fill="#B8AF83"  points="59.569,19.459 60.127,20.017 61.309,20.017 61.867,19.459 "/>
            <polygon fill="#817A5C"  points="61.309,21.198 61.309,20.017 61.867,19.459 61.867,21.757 "/>
            <polygon fill="#5F5C44"  points="60.127,21.198 61.309,21.198 61.867,21.757 59.569,21.757 "/>
            <polygon fill="#9A916C"  points="59.569,19.459 60.127,20.017 60.127,21.198 59.569,21.757 "/>
            <polygon fill="#414141"  points="51.481,17.008 49.918,18.571 49.918,22.643 51.481,24.207 55.554,24.207 57.118,22.643 57.118,18.571 55.554,17.008 "/>
            <rect fill="none" id="connector3pin"  gorn="0.1.0.122" x="52.122" y="19.212" height="2.792" width="2.792"/>
            <g id="connector3terminal"  gorn="0.1.0.123"/>
            <rect fill="#8D8C8C"  x="52.369" y="19.459" height="2.298" width="2.299"/>
            <rect fill="#8C8664"  x="52.928" y="20.017" height="1.183" width="1.182"/>
            <polygon fill="#B8AF83"  points="52.369,19.459 52.928,20.017 54.108,20.017 54.668,19.459 "/>
            <polygon fill="#817A5C"  points="54.108,21.198 54.108,20.017 54.668,19.459 54.668,21.757 "/>
            <polygon fill="#5F5C44"  points="52.928,21.198 54.108,21.198 54.668,21.757 52.369,21.757 "/>
            <polygon fill="#9A916C"  points="52.369,19.459 52.928,20.017 52.928,21.198 52.369,21.757 "/>
            <polygon fill="#414141"  points="44.281,17.008 42.718,18.571 42.718,22.643 44.281,24.207 48.354,24.207 49.918,22.643 49.918,18.571 48.354,17.008 "/>
            <rect fill="none" id="connector4pin"  gorn="0.1.0.131" x="44.922" y="19.212" height="2.792" width="2.792"/>
            <g id="connector4terminal"  gorn="0.1.0.132"/>
            <rect fill="#8D8C8C"  x="45.17" y="19.459" height="2.298" width="2.298"/>
            <rect fill="#8C8664"  x="45.728" y="20.017" height="1.183" width="1.183"/>
            <polygon fill="#B8AF83"  points="45.17,19.459 45.728,20.017 46.909,20.017 47.468,19.459 "/>
            <polygon fill="#817A5C"  points="46.909,21.198 46.909,20.017 47.468,19.459 47.468,21.757 "/>
            <polygon fill="#5F5C44"  points="45.728,21.198 46.909,21.198 47.468,21.757 45.17,21.757 "/>
            <polygon fill="#9A916C"  points="45.17,19.459 45.728,20.017 45.728,21.198 45.17,21.757 "/>
            <polygon fill="#414141"  points="37.081,17.008 35.518,18.571 35.518,22.643 37.081,24.207 41.154,24.207 42.718,22.643 42.718,18.571 41.154,17.008 "/>
            <rect fill="none" id="connector5pin"  gorn="0.1.0.140" x="37.722" y="19.212" height="2.792" width="2.792"/>
            <g id="connector5terminal"  gorn="0.1.0.141"/>
            <rect fill="#8D8C8C"  x="37.969" y="19.459" height="2.298" width="2.298"/>
            <rect fill="#8C8664"  x="38.527" y="20.017" height="1.183" width="1.182"/>
            <polygon fill="#B8AF83"  points="37.969,19.459 38.527,20.017 39.708,20.017 40.268,19.459 "/>
            <polygon fill="#817A5C"  points="39.708,21.198 39.708,20.017 40.268,19.459 40.268,21.757 "/>
            <polygon fill="#5F5C44"  points="38.527,21.198 39.708,21.198 40.268,21.757 37.969,21.757 "/>
            <polygon fill="#9A916C"  points="37.969,19.459 38.527,20.017 38.527,21.198 37.969,21.757 "/>
            <polygon fill="#414141"  points="29.881,17.008 28.318,18.571 28.318,22.643 29.881,24.207 33.954,24.207 35.519,22.643 35.519,18.571 33.954,17.008 "/>
            <rect fill="none" id="connector6pin"  gorn="0.1.0.149" x="30.522" y="19.212" height="2.792" width="2.792"/>
            <g id="connector6terminal"  gorn="0.1.0.150"/>
            <rect fill="#8D8C8C"  x="30.77" y="19.459" height="2.298" width="2.298"/>
            <rect fill="#8C8664"  x="31.328" y="20.017" height="1.183" width="1.182"/>
            <polygon fill="#B8AF83"  points="30.77,19.459 31.328,20.017 32.509,20.017 33.068,19.459 "/>
            <polygon fill="#817A5C"  points="32.509,21.198 32.509,20.017 33.068,19.459 33.068,21.757 "/>
            <polygon fill="#5F5C44"  points="31.328,21.198 32.509,21.198 33.068,21.757 30.77,21.757 "/>
            <polygon fill="#9A916C"  points="30.77,19.459 31.328,20.017 31.328,21.198 30.77,21.757 "/>
            <polygon fill="#414141"  points="8.281,24.208 6.718,25.771 6.718,29.843 8.281,31.407 12.353,31.407 13.917,29.843 13.917,25.771 12.353,24.208 "/>
            <rect fill="none" id="connector7pin"  gorn="0.1.0.158" x="8.923" y="26.412" height="2.792" width="2.791"/>
            <g id="connector7terminal"  gorn="0.1.0.159"/>
            <rect fill="#8D8C8C"  x="9.169" y="26.659" height="2.298" width="2.299"/>
            <rect fill="#8C8664"  x="9.728" y="27.217" height="1.183" width="1.182"/>
            <polygon fill="#B8AF83"  points="9.169,26.659 9.728,27.217 10.908,27.217 11.468,26.659 "/>
            <polygon fill="#817A5C"  points="10.908,28.398 10.908,27.217 11.468,26.659 11.468,28.958 "/>
            <polygon fill="#5F5C44"  points="9.728,28.398 10.908,28.398 11.468,28.958 9.169,28.958 "/>
            <polygon fill="#9A916C"  points="9.169,26.659 9.728,27.217 9.728,28.398 9.169,28.958 "/>
            <polygon fill="#414141"  points="8.282,31.408 6.717,32.971 6.717,37.043 8.282,38.607 12.354,38.607 13.918,37.043 13.918,32.971 12.354,31.408 "/>
            <rect fill="none" id="connector8pin"  gorn="0.1.0.167" x="8.922" y="33.612" height="2.792" width="2.791"/>
            <g id="connector8terminal"  gorn="0.1.0.168"/>
            <rect fill="#8D8C8C"  x="9.168" y="33.859" height="2.298" width="2.299"/>
            <rect fill="#8C8664"  x="9.727" y="34.417" height="1.183" width="1.182"/>
            <polygon fill="#B8AF83"  points="9.168,33.859 9.727,34.417 10.909,34.417 11.467,33.859 "/>
            <polygon fill="#817A5C"  points="10.909,35.598 10.909,34.417 11.467,33.859 11.467,36.157 "/>
            <polygon fill="#5F5C44"  points="9.727,35.598 10.909,35.598 11.467,36.157 9.168,36.157 "/>
            <polygon fill="#9A916C"  points="9.168,33.859 9.727,34.417 9.727,35.598 9.168,36.157 "/>
            <polygon fill="#414141"  points="8.281,38.608 6.719,40.171 6.719,44.243 8.281,45.807 12.354,45.807 13.918,44.243 13.918,40.171 12.354,38.608 "/>
            <rect fill="none" id="connector9pin"  gorn="0.1.0.176" x="8.922" y="40.812" height="2.792" width="2.793"/>
            <g id="connector9terminal"  gorn="0.1.0.177"/>
            <rect fill="#8D8C8C"  x="9.17" y="41.059" height="2.298" width="2.299"/>
            <rect fill="#8C8664"  x="9.729" y="41.617" height="1.183" width="1.182"/>
            <polygon fill="#B8AF83"  points="9.17,41.059 9.729,41.617 10.908,41.617 11.469,41.059 "/>
            <polygon fill="#817A5C"  points="10.908,42.798 10.908,41.617 11.469,41.059 11.469,43.357 "/>
            <polygon fill="#5F5C44"  points="9.729,42.798 10.908,42.798 11.469,43.357 9.17,43.357 "/>
            <polygon fill="#9A916C"  points="9.17,41.059 9.729,41.617 9.729,42.798 9.17,43.357 "/>
            <polygon fill="#414141"  points="8.28,45.808 6.717,47.371 6.717,51.443 8.28,53.007 12.352,53.007 13.918,51.443 13.918,47.371 12.352,45.808 "/>
            <rect fill="none" id="connector10pin"  gorn="0.1.0.185" x="8.922" y="48.012" height="2.792" width="2.791"/>
            <g id="connector10terminal"  gorn="0.1.0.186"/>
            <rect fill="#8D8C8C"  x="9.168" y="48.259" height="2.298" width="2.299"/>
            <rect fill="#8C8664"  x="9.727" y="48.817" height="1.183" width="1.182"/>
            <polygon fill="#B8AF83"  points="9.168,48.259 9.727,48.817 10.909,48.817 11.467,48.259 "/>
            <polygon fill="#817A5C"  points="10.909,49.998 10.909,48.817 11.467,48.259 11.467,50.558 "/>
            <polygon fill="#5F5C44"  points="9.727,49.998 10.909,49.998 11.467,50.558 9.168,50.558 "/>
            <polygon fill="#9A916C"  points="9.168,48.259 9.727,48.817 9.727,49.998 9.168,50.558 "/>
            <rect fill="none"  x="77.975" y="60.208" height="2.791" width="2.791"/>
            <g />
            <rect  x="77.812" y="60.045" height="3.117" width="3.117"/>
            <rect fill="#8D8C8C"  x="78.223" y="60.455" height="2.298" width="2.297"/>
            <rect fill="#8C8664" id="connector15pin"  gorn="0.1.0.197" x="78.779" y="61.013" height="1.183" width="1.184"/>
            <polygon fill="#B8AF83"  points="78.223,60.455 78.779,61.013 79.961,61.013 80.52,60.455 "/>
            <polygon fill="#817A5C"  points="79.961,62.193 79.961,61.013 80.52,60.455 80.52,62.753 "/>
            <polygon fill="#5F5C44"  points="78.779,62.193 79.961,62.193 80.52,62.753 78.223,62.753 "/>
            <polygon fill="#9A916C"  points="78.223,60.455 78.779,61.013 78.779,62.193 78.223,62.753 "/>
            <rect fill="none"  x="70.774" y="60.208" height="2.791" width="2.791"/>
            <g />
            <rect  x="70.611" y="60.045" height="3.117" width="3.117"/>
            <rect fill="#8D8C8C"  x="71.021" y="60.455" height="2.298" width="2.299"/>
            <rect fill="#8C8664" id="connector14pin"  gorn="0.1.0.206" x="71.579" y="61.013" height="1.183" width="1.182"/>
            <polygon fill="#B8AF83"  points="71.021,60.455 71.579,61.013 72.759,61.013 73.319,60.455 "/>
            <polygon fill="#817A5C"  points="72.759,62.193 72.759,61.013 73.319,60.455 73.319,62.753 "/>
            <polygon fill="#5F5C44"  points="71.579,62.193 72.759,62.193 73.319,62.753 71.021,62.753 "/>
            <polygon fill="#9A916C"  points="71.021,60.455 71.579,61.013 71.579,62.193 71.021,62.753 "/>
            <rect fill="none"  x="63.574" y="60.208" height="2.791" width="2.791"/>
            <g />
            <rect  x="63.412" y="60.045" height="3.117" width="3.117"/>
            <rect fill="#8D8C8C"  x="63.822" y="60.455" height="2.298" width="2.297"/>
            <rect fill="#8C8664" id="connector13pin"  gorn="0.1.0.215" x="64.379" y="61.013" height="1.183" width="1.182"/>
            <polygon fill="#B8AF83"  points="63.822,60.455 64.379,61.013 65.561,61.013 66.119,60.455 "/>
            <polygon fill="#817A5C"  points="65.561,62.193 65.561,61.013 66.119,60.455 66.119,62.753 "/>
            <polygon fill="#5F5C44"  points="64.379,62.193 65.561,62.193 66.119,62.753 63.822,62.753 "/>
            <polygon fill="#9A916C"  points="63.822,60.455 64.379,61.013 64.379,62.193 63.822,62.753 "/>
            <rect fill="none"  x="56.375" y="60.208" height="2.793" width="2.791"/>
            <rect  x="56.212" y="60.047" height="3.117" width="3.117"/>
            <rect fill="#8D8C8C"  x="56.623" y="60.456" height="2.299" width="2.297"/>
            <rect fill="#8C8664" id="connector12pin"  gorn="0.1.0.223" x="57.18" y="61.014" height="1.183" width="1.182"/>
            <polygon fill="#B8AF83"  points="56.623,60.456 57.18,61.014 58.361,61.014 58.92,60.456 "/>
            <polygon fill="#817A5C"  points="58.361,62.194 58.361,61.014 58.92,60.456 58.92,62.755 "/>
            <polygon fill="#5F5C44"  points="57.18,62.194 58.361,62.194 58.92,62.755 56.623,62.755 "/>
            <polygon fill="#9A916C"  points="56.623,60.456 57.18,61.014 57.18,62.194 56.623,62.755 "/>
            <rect fill="none"  x="49.174" y="60.208" height="2.793" width="2.792"/>
            <rect  x="49.013" y="60.045" height="3.117" width="3.117"/>
            <rect fill="#8D8C8C"  x="49.423" y="60.456" height="2.299" width="2.297"/>
            <rect fill="#8C8664" id="connector11pin"  gorn="0.1.0.231" x="49.979" y="61.014" height="1.183" width="1.182"/>
            <polygon fill="#B8AF83"  points="49.423,60.456 49.979,61.014 51.161,61.014 51.72,60.456 "/>
            <polygon fill="#817A5C"  points="51.161,62.194 51.161,61.014 51.72,60.456 51.72,62.755 "/>
            <polygon fill="#5F5C44"  points="49.979,62.194 51.161,62.194 51.72,62.755 49.423,62.755 "/>
            <polygon fill="#9A916C"  points="49.423,60.456 49.979,61.014 49.979,62.194 49.423,62.755 "/>
        </g>
    </g>
    <g id="_x3C_Group_x3E__10_"  gorn="0.2">
        <g id="_x3C_Group_x3E__11_"  gorn="0.2.0">
            <path fill="none"  stroke="#8C8C8C" d="M2.708,58.347h16.961" stroke-width="0.8"/>
            <path fill="#D9B477" id="body"  d="M8.441,56.618c-0.197-0.092-0.539-0.164-0.757-0.164H6.588c-0.218,0-0.396,0.179-0.396,0.396v2.953c0,0.219,0.178,0.396,0.396,0.396h1.096c0.218,0,0.56-0.073,0.757-0.161l0.04-0.021c0.199-0.092,0.54-0.162,0.758-0.162h3.961c0.219,0,0.559,0.074,0.758,0.162l0.039,0.021c0.199,0.091,0.539,0.161,0.759,0.161h1.096c0.22,0,0.396-0.179,0.396-0.396v-2.953c0-0.222-0.176-0.396-0.396-0.396h-1.096c-0.22,0-0.56,0.076-0.759,0.164l-0.039,0.02c-0.199,0.09-0.539,0.164-0.758,0.164H9.239c-0.218,0-0.56-0.076-0.758-0.164L8.441,56.618z" gorn="0.2.0.1"/>
            <rect fill="#AD9F4E" id="gold_band"  gorn="0.2.0.2" x="14.93" y="56.45" height="3.748" width="0.388"/>
            <rect fill="#F5EB1A" id="band_rd_multiplier"  gorn="0.2.0.3" x="11.708" y="56.8" height="3.053" width="1.021"/>
            <rect fill="#5D2B7A" id="band_2_nd"  gorn="0.2.0.4" x="9.668" y="56.8" height="3.053" width="1.021"/>
            <path fill="#703E19" id="band_1_st"  d="M8.651,56.696c-0.063-0.021-0.123-0.04-0.17-0.063l-0.04-0.021c-0.199-0.092-0.54-0.162-0.759-0.162H7.636v3.748h0.046c0.219,0,0.56-0.076,0.759-0.165l0.04-0.021c0.047-0.023,0.107-0.043,0.17-0.062V56.696z" gorn="0.2.0.5"/>
            <path fill="#020202" enable-background="new    " id="Shadow"  d="M15.863,58.597L15.863,58.597c0,0.211-0.07,0.387-0.162,0.387h-1.06c-0.209,0-0.539-0.027-0.733-0.062l-0.041-0.011c-0.19-0.035-0.523-0.065-0.735-0.065H9.302c-0.21,0-0.54,0.03-0.734,0.065l-0.04,0.009c-0.19,0.036-0.52,0.064-0.734,0.064H7.62H7.068H6.897c-0.21,0-0.385,0.162-0.385,0.356v0.136v0.088v0.099c0,0.194,0.175,0.354,0.385,0.354H7.79c0.21,0,0.54-0.065,0.735-0.146l0.04-0.02c0.19-0.078,0.524-0.145,0.734-0.145h3.83c0.209,0,0.538,0.064,0.733,0.146l0.041,0.015c0.19,0.079,0.521,0.146,0.735,0.146h1.228c0.207,0,0.385-0.16,0.385-0.354V59.36v-0.535v-1.018C16.097,57.867,15.863,58.034,15.863,58.597z" gorn="0.2.0.6" opacity="0.3"/>
            <rect fill="#020202" enable-background="new    " id="ShadowExtra"  gorn="0.2.0.7" x="14.93" y="58.263" height="1.739" opacity="0.4" width="0.388"/>
            <path fill="#FFFFFF" enable-background="new    " id="ReflexRight"  d="M13.68,56.942c0.127,0,0.271-0.057,0.365-0.096c0.112-0.043,0.317-0.078,0.532-0.078h0.807c0.124,0,0.124,0.135,0.124,0.205c0,0.067-0.009,0.211-0.124,0.211h-1.688c-0.059,0-0.127-0.062-0.127-0.123C13.574,57.015,13.613,56.942,13.68,56.942z" gorn="0.2.0.8" opacity="0.25"/>
            <circle fill="#FFFFFF" enable-background="new    " id="ReflexLeft"  r="0.238" cx="6.651" cy="56.971" gorn="0.2.0.9" opacity="0.35"/>
            <rect fill="#F7EC3C" enable-background="new    " id="Reflex_gold"  gorn="0.2.0.10" x="14.93" y="56.577" height="0.893" opacity="0.5" width="0.388"/>
            <rect fill="#FFFFFF" enable-background="new    " id="Reflex_extra"  gorn="0.2.0.11" x="14.93" y="56.774" height="0.414" opacity="0.5" width="0.388"/>
        </g>
        <g id="_x3C_Group_x3E__12_"  gorn="0.2.1">
            <path fill="none"  stroke="#8C8C8C" d="M2.708,63.845h16.961" stroke-width="0.8"/>
            <path fill="#D9B477" id="body_1_"  d="M8.441,62.117c-0.197-0.093-0.539-0.164-0.757-0.164H6.588c-0.218,0-0.396,0.18-0.396,0.397v2.953c0,0.219,0.178,0.396,0.396,0.396h1.096c0.218,0,0.56-0.074,0.757-0.162l0.04-0.021c0.199-0.093,0.54-0.16,0.758-0.16h3.961c0.219,0,0.559,0.074,0.758,0.16l0.039,0.021c0.199,0.092,0.539,0.162,0.759,0.162h1.096c0.22,0,0.396-0.179,0.396-0.396v-2.953c0-0.222-0.176-0.397-0.396-0.397h-1.096c-0.22,0-0.56,0.075-0.759,0.164l-0.039,0.021c-0.199,0.09-0.539,0.164-0.758,0.164H9.239c-0.218,0-0.56-0.076-0.758-0.164L8.441,62.117z" gorn="0.2.1.1"/>
            <rect fill="#AD9F4E" id="gold_band_1_"  gorn="0.2.1.2" x="14.93" y="61.949" height="3.747" width="0.388"/>
            <rect fill="#F5EB1A" id="band_rd_multiplier_1_"  gorn="0.2.1.3" x="11.708" y="62.3" height="3.051" width="1.021"/>
            <rect fill="#5D2B7A" id="band_2_nd_1_"  gorn="0.2.1.4" x="9.668" y="62.3" height="3.051" width="1.021"/>
            <path fill="#703E19" id="band_1_st_1_"  d="M8.651,62.194c-0.063-0.021-0.123-0.038-0.17-0.062l-0.04-0.02c-0.199-0.094-0.54-0.164-0.759-0.164H7.636v3.748h0.046c0.219,0,0.56-0.076,0.759-0.164l0.04-0.021c0.047-0.023,0.107-0.045,0.17-0.062V62.194z" gorn="0.2.1.5"/>
            <path fill="#020202" enable-background="new    " id="Shadow_1_"  d="M15.863,64.097L15.863,64.097c0,0.209-0.07,0.387-0.162,0.387h-1.06c-0.209,0-0.539-0.027-0.733-0.062l-0.041-0.012c-0.19-0.035-0.523-0.066-0.735-0.066H9.302c-0.21,0-0.54,0.031-0.734,0.066l-0.04,0.01c-0.19,0.035-0.52,0.064-0.734,0.064H7.62H7.068H6.897c-0.21,0-0.385,0.16-0.385,0.355v0.135v0.09v0.098c0,0.195,0.175,0.354,0.385,0.354H7.79c0.21,0,0.54-0.068,0.735-0.146l0.04-0.021c0.19-0.078,0.524-0.144,0.734-0.144h3.83c0.209,0,0.538,0.063,0.733,0.146l0.041,0.019c0.19,0.075,0.521,0.146,0.735,0.146h1.228c0.207,0,0.385-0.162,0.385-0.354v-0.303v-0.533v-1.02C16.097,63.367,15.863,63.533,15.863,64.097z" gorn="0.2.1.6" opacity="0.3"/>
            <rect fill="#020202" enable-background="new    " id="ShadowExtra_1_"  gorn="0.2.1.7" x="14.93" y="63.763" height="1.738" opacity="0.4" width="0.388"/>
            <path fill="#FFFFFF" enable-background="new    " id="ReflexRight_1_"  d="M13.68,62.44c0.127,0,0.271-0.055,0.365-0.094c0.112-0.043,0.317-0.08,0.532-0.08h0.807c0.124,0,0.124,0.135,0.124,0.207c0,0.067-0.009,0.211-0.124,0.211h-1.688c-0.059,0-0.127-0.063-0.127-0.125C13.574,62.513,13.613,62.44,13.68,62.44z" gorn="0.2.1.8" opacity="0.25"/>
            <circle fill="#FFFFFF" enable-background="new    " id="ReflexLeft_1_"  r="0.238" cx="6.651" cy="62.47" gorn="0.2.1.9" opacity="0.35"/>
            <rect fill="#F7EC3C" enable-background="new    " id="Reflex_gold_1_"  gorn="0.2.1.10" x="14.93" y="62.076" height="0.894" opacity="0.5" width="0.388"/>
            <rect fill="#FFFFFF" enable-background="new    " id="Reflex_extra_1_"  gorn="0.2.1.11" x="14.93" y="62.274" height="0.414" opacity="0.5" width="0.388"/>
        </g>
        <g id="_x3C_Group_x3E__13_"  gorn="0.2.2">
            <path fill="none"  stroke="#8C8C8C" d="M2.708,69.643h16.961" stroke-width="0.8"/>
            <path fill="#D9B477" id="body_2_"  d="M8.441,67.914c-0.197-0.092-0.539-0.164-0.757-0.164H6.588c-0.218,0-0.396,0.18-0.396,0.398v2.953c0,0.219,0.178,0.395,0.396,0.395h1.096c0.218,0,0.56-0.072,0.757-0.16l0.04-0.021c0.199-0.09,0.54-0.16,0.758-0.16h3.961c0.219,0,0.559,0.074,0.758,0.16l0.039,0.021c0.199,0.092,0.539,0.16,0.759,0.16h1.096c0.22,0,0.396-0.178,0.396-0.395v-2.953c0-0.219-0.176-0.398-0.396-0.398h-1.096c-0.22,0-0.56,0.076-0.759,0.164l-0.039,0.02c-0.199,0.092-0.539,0.164-0.758,0.164H9.239c-0.218,0-0.56-0.076-0.758-0.164L8.441,67.914z" gorn="0.2.2.1"/>
            <rect fill="#AD9F4E" id="gold_band_2_"  gorn="0.2.2.2" x="14.93" y="67.746" height="3.748" width="0.388"/>
            <rect fill="#F5EB1A" id="band_rd_multiplier_2_"  gorn="0.2.2.3" x="11.708" y="68.098" height="3.051" width="1.021"/>
            <rect fill="#5D2B7A" id="band_2_nd_2_"  gorn="0.2.2.4" x="9.668" y="68.098" height="3.051" width="1.021"/>
            <path fill="#703E19" id="band_1_st_2_"  d="M8.651,67.992c-0.063-0.018-0.123-0.039-0.17-0.062l-0.04-0.02c-0.199-0.092-0.54-0.164-0.759-0.164H7.636v3.748h0.046c0.219,0,0.56-0.076,0.759-0.164l0.04-0.02c0.047-0.025,0.107-0.045,0.17-0.064V67.992z" gorn="0.2.2.5"/>
            <path fill="#020202" enable-background="new    " id="Shadow_2_"  d="M15.863,69.895L15.863,69.895c0,0.209-0.07,0.389-0.162,0.389h-1.06c-0.209,0-0.539-0.031-0.733-0.064l-0.041-0.012c-0.19-0.035-0.523-0.062-0.735-0.062H9.302c-0.21,0-0.54,0.027-0.734,0.062l-0.04,0.008c-0.19,0.037-0.52,0.068-0.734,0.068H7.62H7.068H6.897c-0.21,0-0.385,0.158-0.385,0.355v0.135v0.09v0.096c0,0.197,0.175,0.355,0.385,0.355H7.79c0.21,0,0.54-0.066,0.735-0.146l0.04-0.02c0.19-0.078,0.524-0.145,0.734-0.145h3.83c0.209,0,0.538,0.064,0.733,0.146l0.041,0.018c0.19,0.078,0.521,0.146,0.735,0.146h1.228c0.207,0,0.385-0.162,0.385-0.355v-0.301v-0.535v-1.02C16.097,69.164,15.863,69.33,15.863,69.895z" gorn="0.2.2.6" opacity="0.3"/>
            <rect fill="#020202" enable-background="new    " id="ShadowExtra_2_"  gorn="0.2.2.7" x="14.93" y="69.561" height="1.738" opacity="0.4" width="0.388"/>
            <path fill="#FFFFFF" enable-background="new    " id="ReflexRight_2_"  d="M13.68,68.238c0.127,0,0.271-0.055,0.365-0.094c0.112-0.043,0.317-0.08,0.532-0.08h0.807c0.124,0,0.124,0.135,0.124,0.207c0,0.066-0.009,0.211-0.124,0.211h-1.688c-0.059,0-0.127-0.064-0.127-0.125C13.574,68.311,13.613,68.238,13.68,68.238z" gorn="0.2.2.8" opacity="0.25"/>
            <circle fill="#FFFFFF" enable-background="new    " id="ReflexLeft_2_"  r="0.238" cx="6.651" cy="68.268" gorn="0.2.2.9" opacity="0.35"/>
            <rect fill="#F7EC3C" enable-background="new    " id="Reflex_gold_2_"  gorn="0.2.2.10" x="14.93" y="67.873" height="0.895" opacity="0.5" width="0.388"/>
            <rect fill="#FFFFFF" enable-background="new    " id="Reflex_extra_2_"  gorn="0.2.2.11" x="14.93" y="68.072" height="0.414" opacity="0.5" width="0.388"/>
        </g>
        <g id="_x3C_Group_x3E__14_"  gorn="0.2.3">
            <path fill="none"  stroke="#8C8C8C" d="M2.708,75.27h16.961" stroke-width="0.8"/>
            <path fill="#D9B477" id="body_3_"  d="M8.441,73.541c-0.197-0.092-0.539-0.164-0.757-0.164H6.588c-0.218,0-0.396,0.18-0.396,0.396v2.953c0,0.219,0.178,0.395,0.396,0.395h1.096c0.218,0,0.56-0.072,0.757-0.16l0.04-0.021c0.199-0.092,0.54-0.162,0.758-0.162h3.961c0.219,0,0.559,0.074,0.758,0.162l0.039,0.021c0.199,0.092,0.539,0.16,0.759,0.16h1.096c0.22,0,0.396-0.178,0.396-0.395v-2.953c0-0.219-0.176-0.396-0.396-0.396h-1.096c-0.22,0-0.56,0.076-0.759,0.164l-0.039,0.02c-0.199,0.09-0.539,0.164-0.758,0.164H9.239c-0.218,0-0.56-0.076-0.758-0.164L8.441,73.541z" gorn="0.2.3.1"/>
            <rect fill="#AD9F4E" id="gold_band_3_"  gorn="0.2.3.2" x="14.93" y="73.373" height="3.748" width="0.388"/>
            <rect fill="#F5EB1A" id="band_rd_multiplier_3_"  gorn="0.2.3.3" x="11.708" y="73.723" height="3.053" width="1.021"/>
            <rect fill="#5D2B7A" id="band_2_nd_3_"  gorn="0.2.3.4" x="9.668" y="73.723" height="3.053" width="1.021"/>
            <path fill="#703E19" id="band_1_st_3_"  d="M8.651,73.619c-0.063-0.02-0.123-0.041-0.17-0.062l-0.04-0.021c-0.199-0.092-0.54-0.162-0.759-0.162H7.636v3.748h0.046c0.219,0,0.56-0.076,0.759-0.166l0.04-0.02c0.047-0.023,0.107-0.043,0.17-0.062V73.619z" gorn="0.2.3.5"/>
            <path fill="#020202" enable-background="new    " id="Shadow_3_"  d="M15.863,75.52L15.863,75.52c0,0.211-0.07,0.391-0.162,0.391h-1.06c-0.209,0-0.539-0.031-0.733-0.066l-0.041-0.012c-0.19-0.035-0.523-0.062-0.735-0.062H9.302c-0.21,0-0.54,0.027-0.734,0.062l-0.04,0.01c-0.19,0.035-0.52,0.068-0.734,0.068H7.62H7.068H6.897c-0.21,0-0.385,0.158-0.385,0.354v0.135v0.088v0.098c0,0.195,0.175,0.355,0.385,0.355H7.79c0.21,0,0.54-0.066,0.735-0.146l0.04-0.02c0.19-0.078,0.524-0.145,0.734-0.145h3.83c0.209,0,0.538,0.064,0.733,0.146l0.041,0.014c0.19,0.08,0.521,0.146,0.735,0.146h1.228c0.207,0,0.385-0.16,0.385-0.354v-0.299v-0.535V74.73C16.097,74.789,15.863,74.957,15.863,75.52z" gorn="0.2.3.6" opacity="0.3"/>
            <rect fill="#020202" enable-background="new    " id="ShadowExtra_3_"  gorn="0.2.3.7" x="14.93" y="75.186" height="1.738" opacity="0.4" width="0.388"/>
            <path fill="#FFFFFF" enable-background="new    " id="ReflexRight_3_"  d="M13.68,73.865c0.127,0,0.271-0.057,0.365-0.096c0.112-0.043,0.317-0.078,0.532-0.078h0.807c0.124,0,0.124,0.135,0.124,0.205c0,0.066-0.009,0.211-0.124,0.211h-1.688c-0.059,0-0.127-0.062-0.127-0.123C13.574,73.938,13.613,73.865,13.68,73.865z" gorn="0.2.3.8" opacity="0.25"/>
            <circle fill="#FFFFFF" enable-background="new    " id="ReflexLeft_3_"  r="0.237" cx="6.651" cy="73.894" gorn="0.2.3.9" opacity="0.35"/>
            <rect fill="#F7EC3C" enable-background="new    " id="Reflex_gold_3_"  gorn="0.2.3.10" x="14.93" y="73.5" height="0.893" opacity="0.5" width="0.388"/>
            <rect fill="#FFFFFF" enable-background="new    " id="Reflex_extra_3_"  gorn="0.2.3.11" x="14.93" y="73.697" height="0.414" opacity="0.5" width="0.388"/>
        </g>
    </g>
</svg>
